
<svg width="54px" height="54px" viewBox="2 2 54 54" version="1.1" xmlns="http://www.w3.org/2000/svg" xmlns:xlink="http://www.w3.org/1999/xlink">
    <!-- Generator: Sketch 42 (36781) - http://www.bohemiancoding.com/sketch -->
    <desc>Created with Sketch.</desc>
    <defs></defs>
    <path d="M29.0232558,2 C14.1395349,2 2,14.1034483 2,29 C2,43.8965517 14.0930233,56 29.0232558,56 C43.9069767,56 56,43.8965517 56,29 C56,14.1034483 43.9069767,2 29.0232558,2 L29.0232558,2 Z M29.0232558,52.2293103 C16.2325581,52.2293103 5.81395349,41.8017241 5.81395349,29 C5.81395349,16.1982759 16.2325581,5.77068966 29.0232558,5.77068966 C41.8139535,5.77068966 52.2325581,16.1982759 52.2325581,29 C52.2325581,41.8017241 41.8139535,52.2293103 29.0232558,52.2293103 Z M41.4418605,26.8586207 L30.9302326,26.8586207 L30.9302326,16.2913793 C30.9302326,15.2206897 30.0930233,14.3827586 29.0232558,14.3827586 C27.9534884,14.3827586 27.1162791,15.2206897 27.1162791,16.2913793 L27.1162791,26.812069 L16.6046512,26.812069 C15.5348837,26.812069 14.6976744,27.65 14.6976744,28.7206897 C14.6976744,29.7913793 15.5348837,30.6293103 16.6046512,30.6293103 L27.1162791,30.6293103 L27.1162791,41.15 C27.1162791,42.2206897 27.9534884,43.0586207 29.0232558,43.0586207 C30.0930233,43.0586207 30.9302326,42.2206897 30.9302326,41.15 L30.9302326,30.6293103 L41.4418605,30.6293103 C42.5116279,30.6293103 43.3488372,29.7913793 43.3488372,28.7206897 C43.3488372,27.65 42.5116279,26.8586207 41.4418605,26.8586207 L41.4418605,26.8586207 Z" id="add" stroke="none" fill="#696969" fill-rule="evenodd"></path>
</svg>
