
<svg width="58px" height="58px" viewBox="0 0 58 58" version="1.1" xmlns="http://www.w3.org/2000/svg" xmlns:xlink="http://www.w3.org/1999/xlink">
    <desc>Created with Sketch.</desc>
    <defs></defs>
    <path d="M3.90697674,54 L54.0930233,54 C55.1627907,54 56,53.1612302 56,52.0894688 L56,9.45200373 C56,8.38024231 55.1627907,7.54147251 54.0930233,7.54147251 L44.6511628,7.54147251 L44.6511628,5.91053122 C44.6511628,4.8387698 43.8139535,4 42.744186,4 C41.6744186,4 40.8372093,4.8387698 40.8372093,5.91053122 L40.8372093,7.54147251 L17.4883721,7.54147251 L17.4883721,5.91053122 C17.4883721,4.8387698 16.6511628,4 15.5813953,4 C14.5116279,4 13.6744186,4.8387698 13.6744186,5.91053122 L13.6744186,7.54147251 L3.90697674,7.54147251 C2.8372093,7.54147251 2,8.38024231 2,9.45200373 L2,52.1360671 C2,53.1612302 2.88372093,54 3.90697674,54 L3.90697674,54 Z M5.81395349,11.3625349 L13.6744186,11.3625349 L13.6744186,12.387698 C13.6744186,13.4594595 14.5116279,14.2982293 15.5813953,14.2982293 C16.6511628,14.2982293 17.4883721,13.4594595 17.4883721,12.387698 L17.4883721,11.3625349 L40.8372093,11.3625349 L40.8372093,12.387698 C40.8372093,13.4594595 41.6744186,14.2982293 42.744186,14.2982293 C43.8139535,14.2982293 44.6511628,13.4594595 44.6511628,12.387698 L44.6511628,11.3625349 L52.2325581,11.3625349 L52.2325581,16.3019571 L5.81395349,16.3019571 L5.81395349,11.3625349 L5.81395349,11.3625349 Z M5.81395349,20.1230196 L52.1860465,20.1230196 L52.1860465,50.2255359 L5.81395349,50.2255359 L5.81395349,20.1230196 L5.81395349,20.1230196 Z" id="calendar" stroke="none" fill="#AAAAAA" fill-rule="evenodd"></path>
    <rect id="Rectangle" stroke="none" fill="#AAAAAA" fill-rule="evenodd" x="12" y="25" width="8" height="8"></rect>
    <rect id="Rectangle-Copy-3" stroke="none" fill="#AAAAAA" fill-rule="evenodd" x="12" y="38" width="8" height="8"></rect>
    <rect id="Rectangle-Copy" stroke="none" fill="#AAAAAA" fill-rule="evenodd" x="25" y="25" width="8" height="8"></rect>
    <rect id="Rectangle-Copy-4" stroke="none" fill="#AAAAAA" fill-rule="evenodd" x="25" y="38" width="8" height="8"></rect>
    <rect id="Rectangle-Copy-2" stroke="none" fill="#AAAAAA" fill-rule="evenodd" x="38" y="25" width="8" height="8"></rect>
    <rect id="Rectangle-Copy-5" stroke="none" fill="#AAAAAA" fill-rule="evenodd" x="38" y="38" width="8" height="8"></rect>
</svg>
