
<svg width="36px" height="54px" viewBox="11 2 36 54" version="1.1" xmlns="http://www.w3.org/2000/svg" xmlns:xlink="http://www.w3.org/1999/xlink">
    <!-- Generator: Sketch 42 (36781) - http://www.bohemiancoding.com/sketch -->
    <desc>Created with Sketch.</desc>
    <defs></defs>
    <circle id="Combined-Shape" stroke="none" fill="#696969" fill-rule="evenodd" cx="20" cy="54" r="2"></circle>
    <circle id="Combined-Shape" stroke="none" fill="#696969" fill-rule="evenodd" cx="29" cy="54" r="2"></circle>
    <circle id="Combined-Shape" stroke="none" fill="#696969" fill-rule="evenodd" cx="38" cy="54" r="2"></circle>
    <path d="M20,23 L38,23 L38,5 L20,5 L20,23 Z M17,4.00494659 C17,2.89764516 17.8970262,2 19.0049466,2 L38.9950534,2 C40.1023548,2 41,2.89702623 41,4.00494659 L41,23.9950534 C41,25.1023548 40.1029738,26 38.9950534,26 L19.0049466,26 C17.8976452,26 17,25.1029738 17,23.9950534 L17,4.00494659 Z" id="Rectangle" stroke="none" fill="#696969" fill-rule="nonzero"></path>
    <path d="M20,30 L20,32 L38,32 L38,30 L20,30 Z M17,28.9981014 C17,27.8945804 17.8970262,27 19.0049466,27 L38.9950534,27 C40.1023548,27 41,27.8867064 41,28.9981014 L41,33.0018986 C41,34.1054196 40.1029738,35 38.9950534,35 L19.0049466,35 C17.8976452,35 17,34.1132936 17,33.0018986 L17,28.9981014 Z" id="Rectangle-Copy" stroke="none" fill="#696969" fill-rule="nonzero"></path>
    <path d="M42,15.9974219 C42,14.8942762 42.8938998,14 44.0048815,14 L44.9951185,14 C46.102384,14 47,14.8909254 47,15.9974219 L47,31.0025781 C47,32.1057238 46.1061002,33 44.9951185,33 L44.0048815,33 C42.897616,33 42,32.1090746 42,31.0025781 L42,15.9974219 Z" id="Rectangle-Copy-2" stroke="none" fill="#696969" fill-rule="nonzero"></path>
    <path d="M31.4,38.0052083 L31.4,46.45 L38.874483,46.45 C39.8642787,46.45 40.6666667,47.2489567 40.6666667,48.25 C40.6666667,49.2441125 39.8634805,50.05 38.874483,50.05 L19.125517,50.05 C18.1357213,50.05 17.3333333,49.2510433 17.3333333,48.25 C17.3333333,47.2558875 18.1365195,46.45 19.125517,46.45 L26.6,46.45 L26.6,38.0052083 C26.6,36.8977624 27.5028433,36 28.6078201,36 L29.3921799,36 C30.5010683,36 31.4,36.9024151 31.4,38.0052083 Z M28,39 L28,46 L30,46 L30,39 L28,39 Z" id="Combined-Shape" stroke="none" fill="#696969" fill-rule="evenodd"></path>
    <path d="M11,15.9974219 C11,14.8942762 11.8938998,14 13.0048815,14 L13.9951185,14 C15.102384,14 16,14.8909254 16,15.9974219 L16,31.0025781 C16,32.1057238 15.1061002,33 13.9951185,33 L13.0048815,33 C11.897616,33 11,32.1090746 11,31.0025781 L11,15.9974219 Z" id="Rectangle-Copy-3" stroke="none" fill="#696969" fill-rule="nonzero"></path>
</svg>
