
<svg width="54px" height="54px" viewBox="2 2 54 54" version="1.1" xmlns="http://www.w3.org/2000/svg" xmlns:xlink="http://www.w3.org/1999/xlink">
    <!-- Generator: Sketch 42 (36781) - http://www.bohemiancoding.com/sketch -->
    <desc>Created with Sketch.</desc>
    <defs></defs>
    <path d="M2,4.00209026 C2,2.89636634 2.89221725,2 4.00209026,2 L53.9979097,2 C55.1036337,2 56,2.89221725 56,4.00209026 L56,53.9979097 C56,55.1036337 55.1077828,56 53.9979097,56 L4.00209026,56 C2.89636634,56 2,55.1077828 2,53.9979097 L2,4.00209026 Z M7,8.00167227 L7,49.9983277 C7,50.5501844 7.44846395,51 8.00167227,51 L49.9983277,51 C50.5501844,51 51,50.551536 51,49.9983277 L51,8.00167227 C51,7.44981558 50.551536,7 49.9983277,7 L8.00167227,7 C7.44981558,7 7,7.44846395 7,8.00167227 Z" id="Combined-Shape" stroke="none" fill="#AAAAAA" fill-rule="evenodd"></path>
</svg>
