
<svg width="43px" height="54px" viewBox="8 2 43 54" version="1.1" xmlns="http://www.w3.org/2000/svg" xmlns:xlink="http://www.w3.org/1999/xlink">
    <!-- Generator: Sketch 42 (36781) - http://www.bohemiancoding.com/sketch -->
    <desc>Created with Sketch.</desc>
    <defs></defs>
    <path d="M40.4869739,2 L19.3316633,2 C18.3406814,2 17.5651303,2.77142857 17.5651303,3.75714286 L17.5651303,6.2 L9.76653307,6.2 C8.7755511,6.2 8,6.97142857 8,7.95714286 L8,54.2428571 C8,55.2285714 8.7755511,56 9.76653307,56 L49.2334669,56 C50.2244489,56 51,55.2285714 51,54.2428571 L51,7.95714286 C51,6.97142857 50.2244489,6.2 49.2334669,6.2 L42.253507,6.2 L42.253507,3.75714286 C42.253507,2.77142857 41.4779559,2 40.4869739,2 L40.4869739,2 Z M21.0981964,7.95714286 L21.0981964,5.51428571 L38.7204409,5.51428571 L38.7204409,7.95714286 L38.7204409,11.0428571 L21.0981964,11.0428571 L21.0981964,7.95714286 L21.0981964,7.95714286 Z M47.4669339,9.71428571 L47.4669339,52.4857143 L11.5330661,52.4857143 L11.5330661,9.71428571 L17.5651303,9.71428571 L17.5651303,12.8 C17.5651303,13.7857143 18.3406814,14.5571429 19.3316633,14.5571429 L40.4869739,14.5571429 C41.4779559,14.5571429 42.253507,13.7857143 42.253507,12.8 L42.253507,9.71428571 L47.4669339,9.71428571 Z M42.6412826,32.4285714 L17.1773547,32.4285714 C16.1863727,32.4285714 15.4108216,33.2 15.4108216,34.1857143 C15.4108216,35.1714286 16.1863727,35.9428571 17.1773547,35.9428571 L42.6412826,35.9428571 C43.6322645,35.9428571 44.4078156,35.1714286 44.4078156,34.1857143 C44.4078156,33.2 43.6322645,32.4285714 42.6412826,32.4285714 Z M29.9308617,40.9142857 L17.1773547,40.9142857 C16.1863727,40.9142857 15.4108216,41.6857143 15.4108216,42.6714286 C15.4108216,43.6571429 16.1863727,44.4285714 17.1773547,44.4285714 L29.8877756,44.4285714 C30.8787575,44.4285714 31.6543086,43.6571429 31.6543086,42.6714286 C31.6543086,41.6857143 30.8787575,40.9142857 29.9308617,40.9142857 Z M15.4108216,25.6571429 C15.4108216,26.6428571 16.1863727,27.4142857 17.1773547,27.4142857 L42.6412826,27.4142857 C43.6322645,27.4142857 44.4078156,26.6428571 44.4078156,25.6571429 C44.4078156,24.6714286 43.6322645,23.9 42.6412826,23.9 L17.1773547,23.9 C16.1863727,23.9 15.4108216,24.7142857 15.4108216,25.6571429 L15.4108216,25.6571429 Z" id="padnote" stroke="none" fill="#696969" fill-rule="evenodd"></path>
</svg>
