
<svg width="54px" height="55px" viewBox="2 2 54 55" version="1.1" xmlns="http://www.w3.org/2000/svg" xmlns:xlink="http://www.w3.org/1999/xlink">
    <!-- Generator: Sketch 42 (36781) - http://www.bohemiancoding.com/sketch -->
    <desc>Created with Sketch.</desc>
    <defs></defs>
    <path d="M29,56 C43.9222798,56 56,43.8756477 56,29 C56,14.0777202 43.8756477,2 29,2 C14.1243523,2 2,14.0777202 2,29 C2,43.8756477 14.0777202,56 29,56 L29,56 Z M29,5.77720207 C41.8238342,5.77720207 52.2227979,16.1761658 52.2227979,29 C52.2227979,41.8238342 41.8238342,52.2227979 29,52.2227979 C16.1761658,52.2227979 5.77720207,41.7772021 5.77720207,29 C5.77720207,16.1761658 16.1761658,5.77720207 29,5.77720207 Z M27.7409326,32.1709845 L36.7409326,32.1709845 C37.8134715,32.1709845 38.6528497,31.3316062 38.6528497,30.2590674 C38.6528497,29.1865285 37.8134715,28.3471503 36.7409326,28.3471503 L29.6528497,28.3471503 L29.6528497,17.2487047 C29.6528497,16.1761658 28.8134715,15.3367876 27.7409326,15.3367876 C26.6683938,15.3367876 25.8290155,16.1761658 25.8290155,17.2487047 L25.8290155,30.2590674 C25.8290155,31.3316062 26.6683938,32.1709845 27.7409326,32.1709845 L27.7409326,32.1709845 Z" id="clock" stroke="none" fill="#696969" fill-rule="evenodd"></path>
</svg>
