
<svg width="54px" height="54px" viewBox="2 2 54 54" version="1.1" xmlns="http://www.w3.org/2000/svg" xmlns:xlink="http://www.w3.org/1999/xlink">
    <!-- Generator: Sketch 42 (36781) - http://www.bohemiancoding.com/sketch -->
    <desc>Created with Sketch.</desc>
    <defs></defs>
    <path d="M2.55765921,55.4423408 C2.92943201,55.8141136 3.39414802,56 3.90533563,56 C4.41652324,56 4.88123924,55.8141136 5.25301205,55.4423408 L29,31.6953528 L52.746988,55.4423408 C53.1187608,55.8141136 53.5834768,56 54.0946644,56 C54.5593804,56 55.070568,55.8141136 55.4423408,55.4423408 C56.1858864,54.6987952 56.1858864,53.4905336 55.4423408,52.746988 L31.6953528,29 L55.4423408,5.25301205 C56.1858864,4.50946644 56.1858864,3.30120482 55.4423408,2.55765921 C54.6987952,1.8141136 53.4905336,1.8141136 52.746988,2.55765921 L29,26.3046472 L5.25301205,2.55765921 C4.50946644,1.8141136 3.30120482,1.8141136 2.55765921,2.55765921 C1.8141136,3.30120482 1.8141136,4.50946644 2.55765921,5.25301205 L26.3046472,29 L2.55765921,52.746988 C1.8141136,53.4905336 1.8141136,54.6987952 2.55765921,55.4423408 L2.55765921,55.4423408 Z" id="cancel" stroke="none" fill="#696969" fill-rule="evenodd"></path>
</svg>
