
<svg width="54px" height="54px" viewBox="2 2 54 54" version="1.1" xmlns="http://www.w3.org/2000/svg" xmlns:xlink="http://www.w3.org/1999/xlink">
    <!-- Generator: Sketch 42 (36781) - http://www.bohemiancoding.com/sketch -->
    <desc>Created with Sketch.</desc>
    <defs></defs>
    <path d="M56,29 C56,14.0826162 43.8709122,2 29,2 C14.1290878,2 2,14.1290878 2,29 C2,43.8709122 14.1290878,56 29,56 C43.8709122,56 56,43.9173838 56,29 Z M29,5.81067126 C41.7796902,5.81067126 52.1893287,16.2203098 52.1893287,29 C52.1893287,41.7796902 41.7796902,52.1893287 29,52.1893287 C16.2203098,52.1893287 5.81067126,41.7796902 5.81067126,29 C5.81067126,16.2203098 16.2203098,5.81067126 29,5.81067126 Z M18.869191,38.8519793 C19.2409639,39.2237522 19.7056799,39.4096386 20.2168675,39.4096386 C20.7280551,39.4096386 21.1927711,39.2237522 21.5645439,38.8519793 L29,31.4165232 L36.4354561,38.8519793 C36.8072289,39.2237522 37.2719449,39.4096386 37.7831325,39.4096386 C38.2943201,39.4096386 38.7590361,39.2237522 39.130809,38.8519793 C39.8743546,38.1084337 39.8743546,36.9001721 39.130809,36.1566265 L31.6953528,28.7211704 L39.130809,21.2857143 C39.8743546,20.5421687 39.8743546,19.3339071 39.130809,18.5903614 C38.3872633,17.8468158 37.1790017,17.8468158 36.4354561,18.5903614 L29,26.0258176 L21.5645439,18.5903614 C20.8209983,17.8468158 19.6127367,17.8468158 18.869191,18.5903614 C18.1256454,19.3339071 18.1256454,20.5421687 18.869191,21.2857143 L26.3046472,28.7211704 L18.869191,36.1566265 C18.1256454,36.9001721 18.1256454,38.1084337 18.869191,38.8519793 Z" id="cancel-1" stroke="none" fill="#696969" fill-rule="evenodd"></path>
</svg>
