
<svg width="54px" height="54px" viewBox="2 2 54 54" version="1.1" xmlns="http://www.w3.org/2000/svg" xmlns:xlink="http://www.w3.org/1999/xlink">
    <!-- Generator: Sketch 42 (36781) - http://www.bohemiancoding.com/sketch -->
    <desc>Created with Sketch.</desc>
    <defs></defs>
    <path d="M3.90533563,23.4137931 C2.83648881,23.4137931 2,24.2517241 2,25.3224138 L2,32.7706897 C2,33.8413793 2.83648881,34.6793103 3.90533563,34.6793103 L7.39070568,34.6793103 C7.90189329,36.6810345 8.6919105,38.5896552 9.76075731,40.3586207 L7.34423408,42.7793103 C6.60068847,43.5241379 6.60068847,44.7344828 7.34423408,45.4793103 L12.595525,50.7396552 C13.3390706,51.4844828 14.5473322,51.4844828 15.2908778,50.7396552 L17.7538726,48.2724138 C19.5197935,49.2965517 21.4251291,50.087931 23.4234079,50.6 L23.4234079,54.0913793 C23.4234079,55.162069 24.2598967,56 25.3287435,56 L32.7641997,56 C33.8330465,56 34.6695353,55.162069 34.6695353,54.0913793 L34.6695353,50.5534483 C36.6678141,50.0413793 38.5266781,49.25 40.292599,48.2258621 L42.8020654,50.7396552 C43.545611,51.4844828 44.7538726,51.4844828 45.4974182,50.7396552 L50.7487091,45.4793103 C51.4922547,44.7344828 51.4922547,43.5241379 50.7487091,42.7793103 L48.2392427,40.2655172 C49.2616179,38.4965517 50.0516351,36.6344828 50.5628227,34.6327586 L54.0946644,34.6327586 C55.1635112,34.6327586 56,33.7948276 56,32.7241379 L56,25.2758621 C56,24.2051724 55.1635112,23.3672414 54.0946644,23.3672414 L50.5628227,23.3672414 C50.0516351,21.3655172 49.2616179,19.5034483 48.2392427,17.7344828 L50.7487091,15.2206897 C51.4922547,14.4758621 51.4922547,13.2655172 50.7487091,12.5206897 L45.4509466,7.30689655 C44.707401,6.56206897 43.4991394,6.56206897 42.7555938,7.30689655 L40.292599,9.77413793 C38.5266781,8.75 36.6213425,7.95862069 34.6230637,7.4 L34.6230637,3.90862069 C34.6230637,2.83793103 33.7865749,2 32.7177281,2 L25.2822719,2 C24.2134251,2 23.3769363,2.83793103 23.3769363,3.90862069 L23.3769363,7.4 C21.3786575,7.91206897 19.4733219,8.70344828 17.707401,9.72758621 L15.2444062,7.26034483 C14.5008606,6.51551724 13.292599,6.51551724 12.5490534,7.26034483 L7.29776248,12.5672414 C6.55421687,13.312069 6.55421687,14.5224138 7.29776248,15.2672414 L9.71428571,17.687931 C8.6454389,19.4568966 7.85542169,21.3655172 7.34423408,23.4137931 L3.90533563,23.4137931 L3.90533563,23.4137931 Z M10.7831325,25.6482759 C11.2478485,23.0413793 12.2702238,20.6672414 13.7108434,18.5258621 C14.222031,17.7810345 14.1290878,16.7568966 13.4784854,16.1051724 L11.3407917,13.9172414 L13.8967298,11.3568966 L16.080895,13.5448276 C16.7314974,14.1965517 17.7538726,14.2896552 18.4974182,13.7775862 C20.6351119,12.287931 23.0516351,11.3103448 25.6075731,10.8448276 C26.4905336,10.6586207 27.1876076,9.9137931 27.1876076,8.98275862 L27.1876076,5.8637931 L30.8123924,5.8637931 L30.8123924,8.98275862 C30.8123924,9.9137931 31.4629948,10.7051724 32.3459552,10.8448276 C34.9018933,11.3103448 37.2719449,12.3344828 39.4096386,13.7775862 C40.1531842,14.2896552 41.1755594,14.1965517 41.8261618,13.5448276 L44.0567986,11.3103448 L46.6127367,13.8706897 L44.3820998,16.1051724 C43.7314974,16.7568966 43.6385542,17.7810345 44.1497418,18.5258621 C45.5903614,20.6672414 46.5662651,23.0413793 47.0774527,25.6017241 C47.2633391,26.4862069 48.0533563,27.1844828 48.9363167,27.1844828 L52.0963855,27.1844828 L52.0963855,30.8155172 L48.9363167,30.8155172 C48.0068847,30.8155172 47.2168675,31.4672414 47.0774527,32.3517241 C46.6127367,34.912069 45.636833,37.2862069 44.1497418,39.4275862 C43.6385542,40.1724138 43.7314974,41.1965517 44.3820998,41.8482759 L46.6127367,44.0827586 L44.0567986,46.6431034 L41.8261618,44.4086207 C41.1755594,43.7568966 40.1531842,43.6637931 39.4096386,44.1758621 C37.2719449,45.6655172 34.9018933,46.6431034 32.3459552,47.1086207 C31.4629948,47.2948276 30.8123924,48.0862069 30.8123924,48.9706897 L30.8123924,52.0896552 L27.1876076,52.0896552 L27.1876076,48.9706897 C27.1876076,48.0396552 26.5370052,47.2482759 25.6075731,47.1086207 C23.0051635,46.6431034 20.6351119,45.6655172 18.4974182,44.1758621 C17.7538726,43.6637931 16.7314974,43.7568966 16.080895,44.4086207 L13.8967298,46.5965517 L11.3407917,44.1758621 L13.524957,41.987931 C14.1755594,41.3362069 14.2685026,40.312069 13.757315,39.5672414 C12.2702238,37.4258621 11.2943201,35.0051724 10.7831325,32.4448276 C10.5972461,31.5603448 9.85370052,30.9086207 8.9242685,30.9086207 L5.85714286,30.9086207 L5.85714286,27.2775862 L8.9242685,27.2775862 C9.80722892,27.2310345 10.5972461,26.5793103 10.7831325,25.6482759 L10.7831325,25.6482759 Z M28.9535284,42.4068966 C36.1566265,42.4068966 42.0120482,36.5413793 42.0120482,29.3258621 C42.0120482,22.1103448 36.1566265,16.2448276 28.9535284,16.2448276 C21.7504303,16.2448276 15.8950086,22.1103448 15.8950086,29.3258621 C15.8950086,36.5413793 21.7504303,42.4068966 28.9535284,42.4068966 L28.9535284,42.4068966 Z M28.9535284,20.062069 C34.0654045,20.062069 38.2013769,24.2051724 38.2013769,29.3258621 C38.2013769,34.4465517 34.0654045,38.5896552 28.9535284,38.5896552 C23.8416523,38.5896552 19.7056799,34.4465517 19.7056799,29.3258621 C19.7056799,24.2051724 23.8416523,20.062069 28.9535284,20.062069 L28.9535284,20.062069 Z" id="settings-1" stroke="none" fill="#696969" fill-rule="evenodd"></path>
</svg>
