
<svg width="55px" height="54px" viewBox="1 2 55 54" version="1.1" xmlns="http://www.w3.org/2000/svg" xmlns:xlink="http://www.w3.org/1999/xlink">
    <!-- Generator: Sketch 42 (36781) - http://www.bohemiancoding.com/sketch -->
    <desc>Created with Sketch.</desc>
    <defs></defs>
    <path d="M25.4632742,14.6511628 C25.9729587,14.6511628 26.4363083,14.8372093 26.8069879,15.2093023 C27.5483472,15.9534884 27.5483472,17.1627907 26.8069879,17.8139535 L17.5399967,27.1162791 L53.1002668,27.0481155 C54.1659708,27.0481155 55,27.8853248 55,28.9550922 C55,30.0248597 54.1659708,30.862069 53.1002668,30.862069 L17.5399967,30.9302326 L26.8069879,40.2325581 C27.5483472,40.9767442 27.5483472,42.1860465 26.8069879,42.9302326 C26.0656286,43.6744186 24.8609198,43.6744186 24.1195605,42.9302326 L11.6091223,30.372093 C11.5164524,30.2790698 11.4237825,30.1860465 11.3311126,30.0465116 C11.2847776,29.9534884 11.2384426,29.8604651 11.1921077,29.7674419 C11.1457727,29.7674419 11.1457727,29.7209302 11.1457727,29.6744186 C11.0994378,29.627907 11.0531028,29.5348837 11.0531028,29.4418605 C11.0067679,29.3023256 11.0067679,29.2093023 11.0067679,29.0697674 C11.0067679,28.9302326 11.0067679,28.8372093 11.0531028,28.6976744 C11.0994378,28.6046512 11.0994378,28.5581395 11.1457727,28.4651163 C11.1921077,28.4651163 11.1921077,28.4186047 11.1921077,28.372093 C11.2384426,28.3255814 11.2847776,28.2325581 11.3311126,28.1395349 C11.3311126,28.0930233 11.3774475,28.0465116 11.3774475,28.0465116 C11.4237825,27.9534884 11.5164524,27.8604651 11.6091223,27.7674419 L24.1195605,15.2093023 C24.4902401,14.8372093 24.9535897,14.6511628 25.4632742,14.6511628 Z M10.8997332,56 L3.8997332,56 C2.88036417,56 2.04633496,55.1627907 2,54.0930233 L2,3.90697674 C2,2.8372093 2.83402921,2 3.8997332,2 L35.9206096,2 C36.9863136,2 37.8203428,2.8372093 37.8203428,3.90697674 L37.8203428,18.6511628 C37.8203428,19.7209302 36.9863136,20.5581395 35.9206096,20.5581395 C34.8549056,20.5581395 34.0208764,19.7209302 34.0208764,18.6511628 L34.0208764,5.81395349 L5.79946641,5.81395349 L5.79946641,52.1860465 L34.0208764,52.1860465 L34.0208764,39.3488372 C34.0208764,38.2790698 34.8549056,37.4418605 35.9206096,37.4418605 C36.9863136,37.4418605 37.8203428,38.2790698 37.8203428,39.3488372 L37.8203428,54.0930233 C37.8203428,55.1627907 36.9863136,56 35.9206096,56 L10.8997332,56 Z" id="logout" stroke="none" fill="#696969" fill-rule="evenodd" transform="translate(28.500000, 29.000000) rotate(-90.000000) translate(-28.500000, -29.000000) "></path>
</svg>
