
<svg width="54px" height="52px" viewBox="2 4 54 52" version="1.1" xmlns="http://www.w3.org/2000/svg" xmlns:xlink="http://www.w3.org/1999/xlink">
    <!-- Generator: Sketch 42 (36781) - http://www.bohemiancoding.com/sketch -->
    <desc>Created with Sketch.</desc>
    <defs></defs>
    <path d="M27.6398124,48.1912145 L2.57271059,23.1963824 C1.82378136,22.4496124 1.82378136,21.2635659 2.57271059,20.5167959 C3.32163981,19.7700258 4.51111564,19.7700258 5.26004487,20.5167959 L27.0671018,42.3049096 L27.0671018,5.88888889 C27.0671018,4.83462532 27.9041403,4 28.9614522,4 C30.018764,4 30.8558026,4.83462532 30.8558026,5.88888889 L30.8558026,42.2609819 L52.7509688,20.5167959 C53.499898,19.7700258 54.6893739,19.7700258 55.4383031,20.5167959 C56.1872323,21.2635659 56.1872323,22.4496124 55.4383031,23.1963824 L30.3712013,48.1912145 C30.1949827,48.3669251 29.9747094,48.498708 29.7544361,48.5865633 L29.7103814,48.5865633 C29.4901081,48.6744186 29.2698348,48.7183463 29.0055068,48.7183463 C28.7411789,48.7183463 28.5209056,48.6744186 28.3006323,48.5865633 L28.2565776,48.5865633 C28.0363043,48.498708 27.816031,48.3669251 27.6398124,48.1912145 Z M3.8943504,55 L3.8943504,55 C2.83703855,55 2,54.121447 2,53.1111111 C2,52.0568475 2.83703855,51.2222222 3.8943504,51.2222222 L54.0285539,51.2222222 C55.0858658,51.2222222 55.9229043,52.0568475 55.9229043,53.1111111 C55.9229043,54.1653747 55.0858658,55 54.0285539,55 L3.8943504,55 Z" id="download" stroke="none" fill="#696969" fill-rule="evenodd"></path>
</svg>
