
<svg width="54px" height="29px" viewBox="2 15 54 29" version="1.1" xmlns="http://www.w3.org/2000/svg" xmlns:xlink="http://www.w3.org/1999/xlink">
    <!-- Generator: Sketch 42 (36781) - http://www.bohemiancoding.com/sketch -->
    <desc>Created with Sketch.</desc>
    <defs></defs>
    <path d="M29,15 C15.8247423,15 3.06701031,27.5945513 2.55670103,28.1522436 C2.18556701,28.5240385 2,28.9887821 2,29.5 C2,30.0112179 2.18556701,30.4759615 2.55670103,30.8477564 C3.11340206,31.4054487 15.8247423,44 29,44 C42.1752577,44 54.9329897,31.4054487 55.443299,30.8477564 C55.814433,30.4759615 56,30.0112179 56,29.5 C56,28.9887821 55.814433,28.5240385 55.443299,28.1522436 C54.9329897,27.5945513 42.2216495,15 29,15 L29,15 Z M29,40.1426282 C19.7680412,40.1426282 10.257732,32.6137821 6.68556701,29.4535256 C10.257732,26.2932692 19.7680412,18.7644231 29,18.7644231 C38.2319588,18.7644231 47.742268,26.2932692 51.314433,29.4535256 C47.742268,32.6137821 38.2319588,40.1426282 29,40.1426282 L29,40.1426282 Z M22.1804124,29.4535256 C22.1804124,33.2179487 25.242268,36.3317308 29.0463918,36.3317308 C32.8505155,36.3317308 35.9123711,33.2644231 35.9123711,29.4535256 C35.9123711,25.6426282 32.8505155,22.5753205 29.0463918,22.5753205 C25.242268,22.5753205 22.1804124,25.6891026 22.1804124,29.4535256 Z M32.0618557,29.4535256 C32.0618557,31.1266026 30.7164948,32.5208333 29,32.5208333 C27.3298969,32.5208333 25.9381443,31.1730769 25.9381443,29.4535256 C25.9381443,27.7339744 27.2835052,26.3862179 29,26.3862179 C30.6701031,26.4326923 32.0618557,27.7804487 32.0618557,29.4535256 Z" id="visible" stroke="none" fill="#696969" fill-rule="evenodd"></path>
</svg>
