
<svg width="54px" height="54px" viewBox="2 2 54 54" version="1.1" xmlns="http://www.w3.org/2000/svg" xmlns:xlink="http://www.w3.org/1999/xlink">
    <!-- Generator: Sketch 42 (36781) - http://www.bohemiancoding.com/sketch -->
    <desc>Created with Sketch.</desc>
    <defs></defs>
    <path d="M4.04123711,55.9535284 L22.5515464,55.9535284 C22.6443299,55.9535284 22.7835052,56 22.8762887,56 L35.4020619,56 C35.4948454,56 35.6340206,56 35.7268041,55.9535284 L54.0979381,55.9535284 C55.1649485,55.9535284 56,55.1170396 56,54.0481928 L56,28.9535284 C56,28.8141136 56,28.7211704 55.9536082,28.5817556 C55.9536082,28.4888124 55.9072165,28.4423408 55.8608247,28.3493976 C55.8608247,28.302926 55.8608247,28.2564544 55.814433,28.2564544 C55.7680412,28.1635112 55.7216495,28.070568 55.6752577,28.0240964 C55.6752577,27.9776248 55.628866,27.9776248 55.628866,27.9311532 C55.5824742,27.83821 55.4896907,27.7452668 55.3969072,27.6523236 L30.3453608,2.55765921 C29.6030928,1.8141136 28.3969072,1.8141136 27.6546392,2.55765921 L2.60309278,27.6523236 C2.51030928,27.7452668 2.41752577,27.83821 2.37113402,27.9311532 C2.37113402,27.9776248 2.32474227,27.9776248 2.32474227,28.0240964 C2.27835052,28.1170396 2.23195876,28.1635112 2.18556701,28.2564544 C2.18556701,28.302926 2.13917526,28.3493976 2.13917526,28.3958692 C2.09278351,28.4888124 2.09278351,28.535284 2.04639175,28.6282272 C2,28.767642 2,28.8605852 2,29 L2,54.0946644 C2.18556701,55.1170396 3.02061856,55.9535284 4.04123711,55.9535284 L4.04123711,55.9535284 Z M33.5,52.1428571 L24.7783505,52.1428571 L24.7783505,43.4061962 L33.5,43.4061962 L33.5,52.1428571 L33.5,52.1428571 Z M29.0927835,6.60068847 L49.5515464,27.0946644 L8.63402062,27.0946644 L29.0927835,6.60068847 L29.0927835,6.60068847 Z M5.94329897,30.9053356 L52.1958763,30.9053356 L52.1958763,52.1893287 L37.3041237,52.1893287 L37.3041237,41.5008606 C37.3041237,40.4320138 36.4690722,39.595525 35.4020619,39.595525 L22.8762887,39.595525 C21.8092784,39.595525 20.9742268,40.4320138 20.9742268,41.5008606 L20.9742268,52.1428571 L5.94329897,52.1428571 L5.94329897,30.9053356 L5.94329897,30.9053356 Z" id="home" stroke="none" fill="#696969" fill-rule="evenodd"></path>
</svg>
