
<svg width="43px" height="54px" viewBox="8 2 43 54" version="1.1" xmlns="http://www.w3.org/2000/svg" xmlns:xlink="http://www.w3.org/1999/xlink">
    <!-- Generator: Sketch 42 (36781) - http://www.bohemiancoding.com/sketch -->
    <desc>Created with Sketch.</desc>
    <defs></defs>
    <path d="M29.5231597,2 C17.6691517,2 8,11.6744186 8,23.5813953 C8,25.0232558 8.13945892,26.4651163 8.41837675,27.8604651 C8.41837675,27.9534884 8.46486306,28.0465116 8.46486306,28.1860465 C10.8356647,38.8372093 27.5242485,54.8372093 28.2215431,55.4883721 C28.5934336,55.8604651 29.0582966,56 29.5231597,56 C29.9880228,56 30.4528858,55.8139535 30.8247763,55.4883721 C31.5220709,54.7906977 48.1176821,38.8372093 50.4884837,28.4186047 C50.4884837,28.3255814 50.53497,28.2325581 50.53497,28.1395349 C50.8603742,26.6511628 50.9998331,25.1162791 50.9998331,23.5813953 C51.0463194,11.6744186 41.3771677,2 29.5231597,2 L29.5231597,2 Z M46.8160655,27.4418605 L46.8160655,27.5813953 C45.0495859,35.3023256 33.4744957,47.4883721 29.5231597,51.4418605 C25.5718237,47.4883721 13.9502472,35.3023256 12.1837675,27.3953488 C12.1837675,27.3023256 12.1837675,27.255814 12.1372812,27.1627907 C11.9048497,25.9534884 11.7653908,24.744186 11.7653908,23.5348837 C11.7653908,13.7674419 19.7145491,5.76744186 29.4766734,5.76744186 C39.2387977,5.76744186 47.2344423,13.7209302 47.2344423,23.5348837 C47.2344423,24.8837209 47.0949834,26.1860465 46.8160655,27.4418605 L46.8160655,27.4418605 Z M29.5231597,14.1395349 C25.5253374,14.1395349 22.3177823,17.3953488 22.3177823,21.3488372 C22.3177823,25.3023256 25.5718237,28.5581395 29.5231597,28.5581395 C33.4744957,28.5581395 36.7285371,25.3488372 36.7285371,21.3488372 C36.7285371,17.3488372 33.520982,14.1395349 29.5231597,14.1395349 Z M29.5231597,24.7906977 C27.6172211,24.7906977 26.083173,23.255814 26.083173,21.3488372 C26.083173,19.4418605 27.6172211,17.9069767 29.5231597,17.9069767 C31.4290982,17.9069767 32.9631463,19.4418605 32.9631463,21.3488372 C32.9631463,23.255814 31.4290982,24.7906977 29.5231597,24.7906977 Z" id="placeholder" stroke="none" fill="#696969" fill-rule="evenodd"></path>
</svg>
