
<svg width="54px" height="47px" viewBox="2 6 54 47" version="1.1" xmlns="http://www.w3.org/2000/svg" xmlns:xlink="http://www.w3.org/1999/xlink">
    <!-- Generator: Sketch 42 (36781) - http://www.bohemiancoding.com/sketch -->
    <desc>Created with Sketch.</desc>
    <defs></defs>
    <path d="M2.04663212,51.3063063 C2.04663212,51.3533534 2.04663212,51.4004004 2.09326425,51.4944945 C2.09326425,51.5415415 2.13989637,51.6356356 2.13989637,51.6826827 C2.13989637,51.7297297 2.1865285,51.7767768 2.1865285,51.8708709 C2.23316062,51.9179179 2.23316062,51.964965 2.27979275,52.0590591 C2.32642487,52.1061061 2.32642487,52.1531532 2.37305699,52.2002002 C2.41968912,52.2472472 2.46632124,52.2942943 2.46632124,52.3413413 C2.51295337,52.3883884 2.55958549,52.4354354 2.60621762,52.4824825 L2.65284974,52.5295295 C2.65284974,52.5295295 2.69948187,52.5295295 2.69948187,52.5765766 C2.83937824,52.7177177 3.02590674,52.8118118 3.21243523,52.8588589 C3.25906736,52.8588589 3.25906736,52.8588589 3.30569948,52.9059059 C3.49222798,52.952953 3.67875648,53 3.86528497,53 L3.86528497,53 L54.1813472,53 L54.1813472,53 C54.3678756,53 54.5544041,52.952953 54.7409326,52.9059059 C54.7875648,52.9059059 54.7875648,52.9059059 54.8341969,52.8588589 C55.0207254,52.7647648 55.2072539,52.6706707 55.3471503,52.5765766 C55.3471503,52.5765766 55.3937824,52.5765766 55.3937824,52.5295295 L55.4404145,52.4824825 C55.4870466,52.4354354 55.5336788,52.3883884 55.5803109,52.3413413 C55.626943,52.2942943 55.6735751,52.2472472 55.6735751,52.2002002 C55.7202073,52.1531532 55.7202073,52.1061061 55.7668394,52.0590591 C55.8134715,52.012012 55.8134715,51.964965 55.8601036,51.8708709 C55.9067358,51.8238238 55.9067358,51.7767768 55.9067358,51.6826827 C55.9067358,51.6356356 55.9533679,51.5415415 55.9533679,51.4944945 C55.9533679,51.4474474 56,51.4004004 56,51.3063063 L56,51.1181181 L56,51.024024 L56,7.92892893 C56,6.84684685 55.1606218,6 54.0880829,6 L3.9119171,6 C2.83937824,6 2,6.84684685 2,7.92892893 L2,51.024024 L2,51.1181181 C2.04663212,51.1651652 2.04663212,51.2122122 2.04663212,51.3063063 L2.04663212,51.3063063 Z M8.01554404,49.0950951 L22.1450777,32.0640641 L28.0207254,36.2042042 C28.3471503,36.4394394 28.7202073,36.5335335 29.0932642,36.5335335 C29.4663212,36.5335335 29.8393782,36.4394394 30.1658031,36.2042042 L36.0414508,32.0640641 L50.1709845,49.0950951 L8.01554404,49.0950951 L8.01554404,49.0950951 Z M52.3626943,45.7077077 L39.1658031,29.8528529 L52.3160622,20.5845846 L52.3160622,45.7077077 L52.3626943,45.7077077 Z M5.87046632,9.85785786 L52.3626943,9.85785786 L52.3626943,15.9269269 L29.1398964,32.2522523 L5.87046632,15.9269269 L5.87046632,9.85785786 L5.87046632,9.85785786 Z M5.87046632,20.5845846 L19.0207254,29.8528529 L5.87046632,45.7077077 L5.87046632,20.5845846 L5.87046632,20.5845846 Z" id="envelope" stroke="none" fill="#696969" fill-rule="evenodd"></path>
</svg>
