
<svg width="54px" height="54px" viewBox="2 2 54 54" version="1.1" xmlns="http://www.w3.org/2000/svg" xmlns:xlink="http://www.w3.org/1999/xlink">
    <!-- Generator: Sketch 42 (36781) - http://www.bohemiancoding.com/sketch -->
    <desc>Created with Sketch.</desc>
    <defs></defs>
    <path d="M54.0747029,51.2404844 L54.0747029,51.2404844 C55.1290323,51.2404844 56,52.1115917 56,53.1202422 C56,54.1288927 55.1748727,55 54.1205433,55 L3.92529711,55 C2.91680815,55 2.04584041,54.1288927 2.04584041,53.1202422 C2.04584041,52.1115917 2.87096774,51.2404844 3.92529711,51.2404844 L54.0747029,51.2404844 Z M2.04584041,34.5977509 L2.04584041,34.5977509 C2.04584041,34.0934256 2.27504244,33.6349481 2.5959253,33.2681661 L27.1663837,8.73961938 L33.3089983,2.55017301 C34.0882852,1.816609 35.2801358,1.816609 36.0135823,2.55017301 L44.8149406,11.4446367 C45.5483871,12.2240484 45.5483871,13.41609 44.8149406,14.149654 L14.1018676,44.8676471 C13.7351443,45.2344291 13.2767402,45.4178201 12.7724958,45.4178201 L3.87945671,45.4636678 C3.37521222,45.4636678 2.91680815,45.2802768 2.55008489,44.9134948 C2.18336163,44.5467128 2,44.0423875 2,43.5380623 L2.04584041,34.5977509 Z M34.6842105,6.58477509 L31.2003396,10.0692042 L37.3887946,16.2586505 L40.8726655,12.7742215 L34.6842105,6.58477509 Z M5.85059423,35.4230104 L5.80475382,41.6124567 L12.0390492,41.566609 L34.6842105,18.9636678 L28.4957555,12.7742215 L5.85059423,35.4230104 Z" id="edit" stroke="none" fill="#AAAAAA" fill-rule="evenodd"></path>
</svg>
