
<svg width="54px" height="52px" viewBox="2 4 54 52" version="1.1" xmlns="http://www.w3.org/2000/svg" xmlns:xlink="http://www.w3.org/1999/xlink">
    <!-- Generator: Sketch 42 (36781) - http://www.bohemiancoding.com/sketch -->
    <desc>Created with Sketch.</desc>
    <defs></defs>
    <path d="M28.91133,32.6215517 C36.8916256,32.6215517 43.364532,26.2025862 43.364532,18.2887931 C43.364532,10.375 36.8916256,4 28.91133,4 C20.9310345,4 14.4581281,10.4189655 14.4581281,18.2887931 C14.4581281,26.1586207 20.9310345,32.6215517 28.91133,32.6215517 L28.91133,32.6215517 Z M28.91133,7.73706897 C34.7635468,7.73706897 39.5517241,12.4853448 39.5517241,18.2887931 C39.5517241,24.0922414 34.7635468,28.8405172 28.91133,28.8405172 C23.0591133,28.8405172 18.270936,24.0922414 18.270936,18.2887931 C18.270936,12.4853448 23.0591133,7.73706897 28.91133,7.73706897 Z M3.90640394,55 L3.90640394,55 C2.84236453,55 2,54.1646552 2,53.1094828 C2,43.1732759 10.1576355,35.1275862 20.1330049,35.1275862 L37.8669951,35.1275862 C47.8866995,35.1275862 56,43.2172414 56,53.1094828 C56,54.1646552 55.1576355,55 54.0935961,55 L3.90640394,55 Z M20.1330049,38.9086207 C12.862069,38.9086207 6.87684729,44.3163793 5.94581281,51.2189655 L52.0541872,51.2189655 C51.1231527,44.2724138 45.137931,38.9086207 37.8669951,38.9086207 L20.1330049,38.9086207 Z" id="profile" stroke="none" fill="#696969" fill-rule="evenodd"></path>
</svg>
