
<svg width="54px" height="54px" viewBox="2 2 54 54" version="1.1" xmlns="http://www.w3.org/2000/svg" xmlns:xlink="http://www.w3.org/1999/xlink">
    <!-- Generator: Sketch 42 (36781) - http://www.bohemiancoding.com/sketch -->
    <desc>Created with Sketch.</desc>
    <defs></defs>
    <path d="M23.0129422,44.0258844 C11.4581536,44.0258844 2,34.6143227 2,23.0129422 C2,11.4581536 11.4581536,2 23.0129422,2 C34.6143227,2 44.0258844,11.4115617 44.0258844,23.0129422 C44.0258844,28.0914582 42.1622088,32.797239 39.133736,36.4314064 L55.4408973,52.7385677 C56.1863676,53.484038 56.1863676,54.6954271 55.4408973,55.4408973 C55.0681622,55.8136324 54.6022433,56 54.0897325,56 C53.5772217,56 53.1113028,55.8136324 52.7385677,55.4408973 L36.4314064,39.133736 C32.797239,42.2088007 28.13805,44.0258844 23.0129422,44.0258844 Z M23.0129422,5.82053494 C13.5547886,5.82053494 5.82053494,13.5547886 5.82053494,23.0129422 C5.82053494,32.4710958 13.5081967,40.2053494 23.0129422,40.2053494 C32.5176877,40.2053494 40.2053494,32.5176877 40.2053494,23.0129422 C40.2053494,13.5547886 32.5176877,5.82053494 23.0129422,5.82053494 Z" id="Combined-Shape" stroke="none" fill="#696969" fill-rule="evenodd"></path>
</svg>
