
<svg width="55px" height="51px" viewBox="0 0 55 51" version="1.1" xmlns="http://www.w3.org/2000/svg" xmlns:xlink="http://www.w3.org/1999/xlink">
    <!-- Generator: Sketch 42 (36781) - http://www.bohemiancoding.com/sketch -->
    <desc>Created with Sketch.</desc>
    <defs></defs>
    <path d="M26.5948918,38.7490015 L16.1839863,44.1752446 C15.5456097,44.5079941 14.7991469,43.9704946 14.921084,43.265517 L16.9094254,31.7727884 C16.9579035,31.492759 16.8641628,31.2070899 16.6591205,31.0089605 L8.2363091,22.8694731 C7.71986961,22.3702264 8.00480174,21.5004679 8.71886342,21.3974799 L20.3585387,19.7207367 C20.6422342,19.6797867 20.8870977,19.5032358 21.0139816,19.2487082 L26.2194343,8.79199012 C26.5387463,8.15076703 27.4610657,8.15076703 27.7803776,8.79199012 L32.9858304,19.2487082 C33.1127142,19.5032358 33.3578251,19.6797867 33.6412732,19.7207367 L45.2811959,21.3974799 C45.9950102,21.5004679 46.2799423,22.3702264 45.7635029,22.8694731 L37.3406915,31.0089605 C37.1356492,31.2070899 37.0421558,31.492759 37.0906339,31.7727884 L39.078728,43.265517 C39.2006651,43.9704946 38.4544496,44.5079941 37.8158257,44.1752446 L27.4049202,38.7490015 C27.1513998,38.6168335 26.8484121,38.6168335 26.5948918,38.7490015 M53.2538541,18.8293998 L36.1049962,16.3589131 C35.8215481,16.3179631 35.5764372,16.1416574 35.4495534,15.8868846 L27.7803776,0.481101231 C27.4610657,-0.160367077 26.5387463,-0.160367077 26.2194343,0.481101231 L18.5502585,15.8868846 C18.4233747,16.1416574 18.1785112,16.3179631 17.8948157,16.3589131 L0.746205234,18.8293998 C0.0321435542,18.9321426 -0.252788574,19.8019011 0.263898246,20.301393 L12.672544,32.292878 C12.8778337,32.4912525 12.971327,32.7769217 12.9230963,33.0567059 L9.99363789,49.9894094 C9.87170079,50.6941418 10.6179163,51.2318864 11.2565402,50.8988918 L26.5948918,42.9045685 C26.8484121,42.7724005 27.1513998,42.7724005 27.4049202,42.9045685 L42.7432718,50.8988918 C43.3818957,51.2318864 44.1281112,50.6941418 44.0064214,49.9894094 L41.076963,33.0567059 C41.0284849,32.7769217 41.1219783,32.4912525 41.3272679,32.292878 L53.736161,20.301393 C54.2528479,19.8019011 53.9676684,18.9321426 53.2538541,18.8293998" id="Fill-1" stroke="none" fill="#696969" fill-rule="evenodd"></path>
</svg>
