
<svg width="54px" height="54px" viewBox="2 2 54 54" version="1.1" xmlns="http://www.w3.org/2000/svg" xmlns:xlink="http://www.w3.org/1999/xlink">
    <!-- Generator: Sketch 42 (36781) - http://www.bohemiancoding.com/sketch -->
    <desc>Created with Sketch.</desc>
    <defs></defs>
    <path d="M3.90533563,13.5348837 L5.99655766,13.5348837 L10.8760757,54.3255814 C10.9690189,55.3023256 11.8055077,56 12.7814114,56 L45.2185886,56 C46.1944923,56 46.9845095,55.3023256 47.1239243,54.3255814 L52.0034423,13.5348837 L54.0946644,13.5348837 C55.1635112,13.5348837 56,12.6976744 56,11.627907 C56,10.5581395 55.1635112,9.72093023 54.0946644,9.72093023 L50.2839931,9.72093023 L39.5025818,9.72093023 L39.5025818,3.90697674 C39.5025818,2.8372093 38.6660929,2 37.5972461,2 L20.4027539,2 C19.3339071,2 18.4974182,2.8372093 18.4974182,3.90697674 L18.4974182,9.72093023 L7.71600688,9.72093023 L3.90533563,9.72093023 C2.83648881,9.72093023 2,10.5581395 2,11.627907 C2,12.6976744 2.88296041,13.5348837 3.90533563,13.5348837 L3.90533563,13.5348837 Z M22.3080895,5.81395349 L35.6919105,5.81395349 L35.6919105,9.72093023 L22.3080895,9.72093023 L22.3080895,5.81395349 L22.3080895,5.81395349 Z M48.1462995,13.5348837 L43.545611,52.2325581 L14.454389,52.2325581 L9.85370052,13.5348837 L48.1462995,13.5348837 L48.1462995,13.5348837 Z M22.6798623,46.4186047 C23.7487091,46.4186047 24.5851979,45.5813953 24.5851979,44.5116279 L24.5851979,21.6744186 C24.5851979,20.6046512 23.7487091,19.7674419 22.6798623,19.7674419 C21.6110155,19.7674419 20.7745267,20.6046512 20.7745267,21.6744186 L20.7745267,44.5116279 C20.7745267,45.5813953 21.6110155,46.4186047 22.6798623,46.4186047 Z M35.3201377,46.4186047 C36.3889845,46.4186047 37.2254733,45.5813953 37.2254733,44.5116279 L37.2254733,21.6744186 C37.2254733,20.6046512 36.3889845,19.7674419 35.3201377,19.7674419 C34.2512909,19.7674419 33.4148021,20.6046512 33.4148021,21.6744186 L33.4148021,44.5116279 C33.4148021,45.5813953 34.2977625,46.4186047 35.3201377,46.4186047 Z" id="garbage" stroke="none" fill="#696969" fill-rule="evenodd"></path>
</svg>
